PathFileType	4	(X/Y/Z)	./resultDataOpenSim/trcMotMarkerGrf/sub09/qtm-02-04.trc
DataRate	CameraRate	NumFrames	NumMarkers	Units	OrigDataRate	OrigDataStartFrame	OrigNumFrames
250.000000	250.000000	12	24	m	250.000000	289	461
Frame#	Time	L.Toe.Tip			R.Toe.Tip			L.Ankle.Lat			R.Ankle.Lat			L.Ankle.Med			R.Ankle.Med			L.Heel			R.Heel			L.Knee.Lat			R.Knee.Lat			L.Knee.Med			R.Knee.Med			L.Thigh.Upper			R.Thigh.Upper			L.ASIS			R.ASIS			V.Sacral			L.Acromium			R.Acromium			C7			L.Elbow			R.Elbow			L.Wrist.Lat			R.Wrist.Lat
		X1	Y1	Z1	X2	Y2	Z2	X3	Y3	Z3	X4	Y4	Z4	X5	Y5	Z5	X6	Y6	Z6	X7	Y7	Z7	X8	Y8	Z8	X9	Y9	Z9	X10	Y10	Z10	X11	Y11	Z11	X12	Y12	Z12	X13	Y13	Z13	X14	Y14	Z14	X15	Y15	Z15	X16	Y16	Z16	X17	Y17	Z17	X18	Y18	Z18	X19	Y19	Z19	X20	Y20	Z20	X21	Y21	Z21	X22	Y22	Z22	X23	Y23	Z23	X24	Y24	Z24

289	1.152	0.24092959	0.016763087	0.0099073739	1.1450641	0.060212399	0.09061955	0.15307578	0.1359297	-0.053707953	0.99767084	0.053408704	0.12424967	0.18482447	0.14134973	0.039160684	0.99851257	0.095791897	0.033805994	0.080176257	0.15507816	-0.0086082401	0.93141795	0.028632686	0.074312464	0.44873045	0.43924227	-0.098088493	0.88510881	0.49870982	0.17970929	0.45689094	0.43070853	0.026671191	0.87117226	0.47596438	0.055280848	0.59645713	0.82366592	-0.12609438	0.66913176	0.83166489	0.24011371	0.71966074	0.89423677	-0.088455195	0.73429645	0.91747036	0.15287026	0.55334664	0.96390454	0.047359621	0.70598565	1.3615679	-0.12343488	0.67578669	1.3707677	0.20712287	0.62402272	1.4145545	0.038544292	0.59591644	0.99990349	-0.19478861	0.51317547	1.0498519	0.28979789	0.8288052	0.85894393	-0.175988	0.62339565	0.80212052	0.33522036
290	1.156	0.2417408	0.017270351	0.0096695658	1.1469098	0.055147301	0.088883295	0.15763253	0.13948572	-0.05499682	0.99957726	0.052719869	0.12453668	0.19067642	0.14394172	0.037406354	1.0001416	0.095324678	0.034076027	0.086215015	0.1607203	-0.0090372813	0.93206297	0.029430638	0.075293444	0.45872566	0.43818341	-0.099517044	0.89450014	0.5009455	0.179743	0.46708458	0.42848179	0.025590029	0.87823365	0.47727096	0.055725434	0.60488098	0.82269446	-0.12560083	0.67781524	0.83277513	0.24049276	0.72694097	0.89365084	-0.088109793	0.74196237	0.91796736	0.15323322	0.56113389	0.96390707	0.047321608	0.71319292	1.3613956	-0.12329391	0.68319256	1.3704665	0.20755866	0.63130109	1.4143139	0.038936487	0.60279742	0.99973048	-0.19417239	0.5207967	1.0495011	0.2899849	0.83426362	0.85681314	-0.17612127	0.63146085	0.80170955	0.33528551
291	1.16	0.24282074	0.017988975	0.0093995941	1.1483363	0.050955343	0.086611235	0.16255315	0.14320153	-0.056171313	1.0006255	0.052331563	0.12458377	0.19698183	0.14662146	0.035685859	1.0013107	0.094884228	0.033934837	0.092665511	0.16650888	-0.009333537	0.93252209	0.030021269	0.075962985	0.46905409	0.43702026	-0.10115176	0.9041713	0.50333481	0.17959869	0.47759655	0.42605375	0.024357997	0.88547162	0.4790111	0.056080647	0.61331668	0.8217954	-0.1250141	0.6861925	0.83414207	0.24090639	0.73374019	0.89320981	-0.087665018	0.74954285	0.91861646	0.1536221	0.56894567	0.9639223	0.047282117	0.72037078	1.3613244	-0.12309466	0.69062562	1.3702266	0.20794776	0.63853038	1.4140691	0.039300227	0.60968017	0.99967229	-0.19352154	0.52850618	1.0492201	0.29019506	0.83960512	0.85466221	-0.17626629	0.63950369	0.80134434	0.33530581
292	1.164	0.2441755	0.018947962	0.0090621248	1.1495101	0.048023275	0.08428298	0.16785823	0.14712003	-0.057240841	1.0011052	0.05225224	0.12439791	0.20365662	0.1494478	0.034075102	1.00214	0.094380868	0.033411094	0.099518556	0.17246538	-0.0095652576	0.93300178	0.030442976	0.076276288	0.47967023	0.43575842	-0.10287902	0.91379418	0.50553285	0.17928976	0.48843922	0.42351268	0.022882508	0.89282037	0.48095614	0.056274876	0.62175339	0.82097513	-0.12430753	0.69426316	0.83566512	0.24139501	0.74021464	0.89288722	-0.087081411	0.75702649	0.91939964	0.15402744	0.57677407	0.96394218	0.047260005	0.72754906	1.3613519	-0.12285757	0.69807463	1.3700647	0.2082952	0.64569774	1.4138338	0.039636747	0.61655556	0.99974967	-0.19284814	0.53631728	1.0490132	0.29042393	0.84483085	0.85251613	-0.17643146	0.64753805	0.80104108	0.33528807
293	1.168	0.24578289	0.020147067	0.0086339617	1.1504576	0.046216999	0.082472839	0.17355968	0.15126826	-0.058217561	1.001373	0.05243337	0.12404318	0.210572	0.15247209	0.032637602	1.0027782	0.093843613	0.03268522	0.10678441	0.17861066	-0.0097918289	0.93353789	0.030751992	0.076254991	0.49052727	0.43444121	-0.10459249	0.92311768	0.5073193	0.17888712	0.49964389	0.42096137	0.021117988	0.90023559	0.48295566	0.056294497	0.63019444	0.82016598	-0.12352824	0.70202755	0.83725719	0.24198658	0.74652396	0.89265671	-0.086309962	0.76439782	0.92029832	0.15446999	0.58460564	0.96395935	0.047267637	0.73475089	1.3614715	-0.1226009	0.70552996	1.3699913	0.2086097	0.65279254	1.4136343	0.039951568	0.62342231	0.99997228	-0.19216612	0.54427482	1.0488733	0.29069117	0.84994162	0.85040163	-0.17661406	0.6555989	0.8008147	0.33525107
294	1.172	0.2476178	0.021569275	0.0081165585	1.1511466	0.04508349	0.081498368	0.17967789	0.15562788	-0.059096723	1.0017526	0.05272242	0.12362143	0.21763261	0.15569562	0.031395905	1.0033441	0.093365854	0.031990219	0.11448033	0.18494115	-0.01006235	0.93404306	0.030991964	0.076076684	0.50160682	0.43310577	-0.10621739	0.93204295	0.50866486	0.17846913	0.51128187	0.41843577	0.019135253	0.90769834	0.48494171	0.056167589	0.63864024	0.81925518	-0.12276634	0.70948181	0.8388497	0.24269841	0.75284249	0.89248953	-0.085291653	0.77164706	0.92129085	0.15498338	0.59242453	0.96396612	0.047304055	0.74197932	1.3616682	-0.12233294	0.71298108	1.3699968	0.20889779	0.65982033	1.4134926	0.040255066	0.6302769	1.0003353	-0.19148609	0.55238851	1.0487895	0.29100833	0.85494509	0.84832337	-0.17680189	0.66372205	0.8006654	0.33521574
295	1.176	0.24968292	0.023208264	0.0075300884	1.151613	0.044225671	0.081219612	0.18623932	0.16014447	-0.05986515	1.0024012	0.052904555	0.12323383	0.22480895	0.15908368	0.030343723	1.0038718	0.093028623	0.03148937	0.12261051	0.19142802	-0.010419223	0.93442154	0.031180968	0.075989227	0.51291288	0.43174979	-0.10769922	0.94058049	0.50966721	0.17807747	0.52340346	0.41589654	0.017107238	0.91519993	0.48690865	0.055938468	0.64706694	0.81818047	-0.12207757	0.71661766	0.84038677	0.24353288	0.75934859	0.89235361	-0.083979631	0.77877573	0.92235477	0.1555945	0.60022852	0.96395139	0.047360943	0.7492189	1.361924	-0.1220605	0.7204155	1.3700635	0.20916175	0.66680983	1.4134222	0.040557904	0.63711201	1.0008244	-0.19081262	0.5605556	1.0487404	0.29133117	0.8598605	0.84626715	-0.17699064	0.67192297	0.8005818	0.33519336
296	1.18	0.25201654	0.025075881	0.0068985736	1.1519575	0.043489681	0.08119387	0.19326479	0.16476871	-0.060530306	1.0032422	0.05284658	0.12294843	0.23213279	0.16260946	0.029465796	1.0043246	0.092860814	0.031217334	0.1311672	0.19803569	-0.010885464	0.93465985	0.031321986	0.076113471	0.52445329	0.43034876	-0.10900038	0.94876212	0.51043971	0.17768895	0.53589967	0.41330055	0.01522757	0.92273113	0.4888712	0.055647293	0.65543552	0.81697748	-0.12147745	0.72343481	0.84182643	0.24447039	0.76617937	0.89221619	-0.082398535	0.78579752	0.92347325	0.15631786	0.60805997	0.96389644	0.047464226	0.75644829	1.3622298	-0.12179601	0.72781812	1.3701893	0.20940099	0.67379427	1.4134307	0.040861014	0.64392214	1.0014236	-0.19014613	0.56858206	1.0487054	0.29156222	0.86471035	0.84422667	-0.17719568	0.68018825	0.80055288	0.33517954
297	1.184	0.25466935	0.027179827	0.0062452811	1.1522644	0.04288835	0.08103929	0.20076897	0.16947072	-0.061124085	1.004013	0.052623049	0.12280576	0.2396946	0.16626144	0.028746335	1.0046734	0.092849958	0.031097046	0.14014546	0.20473112	-0.011448335	0.93481845	0.031422745	0.076374793	0.53625305	0.4288783	-0.11013391	0.95658081	0.51104953	0.17727286	0.54867649	0.41067003	0.013558024	0.93027252	0.49080187	0.055320668	0.66372411	0.81573809	-0.12097698	0.72996239	0.84314141	0.24546828	0.77335573	0.89205452	-0.080714332	0.79273603	0.92462943	0.15715389	0.61602552	0.96377596	0.047760156	0.76365611	1.3625873	-0.12155221	0.73517339	1.3703875	0.20961434	0.68078478	1.4135247	0.041147017	0.65070529	1.0021184	-0.18948754	0.57634932	1.0486775	0.2916423	0.86950164	0.84221453	-0.17743625	0.68848601	0.80057301	0.33516082
298	1.188	0.25766725	0.029500441	0.0055925627	1.1525703	0.042448398	0.08066432	0.20876999	0.17421572	-0.061677415	1.0044979	0.052449693	0.12280234	0.24760226	0.17001818	0.028170584	1.0049613	0.092962731	0.031008536	0.14954792	0.21147499	-0.012061932	0.9349609	0.031506996	0.076610479	0.54834708	0.42731001	-0.11116157	0.96397862	0.51151115	0.1768849	0.56191424	0.40810977	0.011975577	0.93777991	0.49259422	0.054970074	0.67193578	0.81454744	-0.12057048	0.73626594	0.84431145	0.24646758	0.78074561	0.89187422	-0.079204433	0.79961835	0.92579253	0.15808406	0.62422189	0.96358052	0.048574606	0.77084256	1.3629961	-0.12133034	0.74247349	1.3706643	0.20980096	0.68776752	1.4137104	0.041388215	0.65746066	1.0028931	-0.18883841	0.58394877	1.0486644	0.29162965	0.87421288	0.84024392	-0.17770811	0.69678729	0.80063628	0.33512509
299	1.192	0.26098536	0.031997532	0.0049492388	1.1528727	0.042144872	0.080197884	0.21728642	0.17895661	-0.062208283	1.0047199	0.052477947	0.12285567	0.25592189	0.17383761	0.027721295	1.0052818	0.093139544	0.030864519	0.15938133	0.21821866	-0.012670691	0.93511484	0.031596449	0.076708038	0.56074442	0.42561826	-0.11213523	0.97089076	0.51181262	0.17661663	0.57566383	0.40574866	0.010429125	0.94517368	0.49409678	0.054593549	0.68006725	0.81345535	-0.12020269	0.74243545	0.84532106	0.24741156	0.78814367	0.89171984	-0.078071721	0.80646529	0.92691719	0.15907574	0.63242873	0.9633967	0.050226767	0.77800766	1.3634457	-0.12112145	0.74972144	1.3710083	0.20995971	0.69472232	1.4139887	0.041571945	0.66418798	1.003726	-0.18820321	0.59157893	1.0486794	0.2916439	0.87881187	0.83831502	-0.17798561	0.70508237	0.80073472	0.33506668
300	1.196	0.26455206	0.03463326	0.0043062522	1.1531446	0.041917221	0.079769388	0.22631814	0.18365393	-0.062725831	1.0048278	0.052693996	0.12285484	0.2646683	0.17766982	0.027376827	1.0056976	0.093290239	0.030641844	0.16965192	0.22491973	-0.013238724	0.93527857	0.031685982	0.076663828	0.57343183	0.4238123	-0.11307756	0.97731198	0.51195252	0.17646637	0.58945789	0.4036313	0.0091234469	0.95235467	0.49519686	0.054178333	0.68808837	0.81248152	-0.11979494	0.74856676	0.84616794	0.24826623	0.79540445	0.89165672	-0.077300662	0.81328705	0.92796265	0.16009583	0.63960468	0.96351272	0.052690853	0.78514479	1.3639224	-0.12092077	0.7569188	1.3714069	0.21008963	0.70163581	1.4143582	0.041712951	0.67088613	1.0045979	-0.18759565	0.59932704	1.0487295	0.29173979	0.88328824	0.83642737	-0.17825024	0.71338531	0.80086952	0.33498828
